<svg width="17" height="23" viewBox="0 0 17 23" fill="none" xmlns="http://www.w3.org/2000/svg">
<path fill-rule="evenodd" clip-rule="evenodd" d="M6.52286 14.1905C7.18797 14.8499 8.08973 15.2208 9.03033 15.2219C9.97094 15.2208 10.8727 14.8499 11.5378 14.1905C12.2029 13.5311 12.5771 12.6371 12.5782 11.7046V4.39422C12.5782 3.46138 12.2044 2.56675 11.539 1.90714C10.8737 1.24752 9.97127 0.876953 9.03033 0.876953C8.08939 0.876953 7.18699 1.24752 6.52164 1.90714C5.85629 2.56675 5.48251 3.46138 5.48251 4.39422V11.7046C5.48361 12.6371 5.85775 13.5311 6.52286 14.1905ZM7.99775 3.37053C8.27164 3.099 8.643 2.9463 9.03033 2.94593C9.41767 2.9463 9.78903 3.099 10.0629 3.37053C10.3368 3.64206 10.4908 4.01022 10.4912 4.39422V11.7046C10.4912 12.0887 10.3373 12.4571 10.0633 12.7287C9.78936 13.0003 9.41778 13.1529 9.03033 13.1529C8.64289 13.1529 8.27131 13.0003 7.99734 12.7287C7.72338 12.4571 7.56946 12.0887 7.56946 11.7046V4.39422C7.56983 4.01022 7.72386 3.64206 7.99775 3.37053ZM14.5749 17.2479C16.0728 15.7616 16.9285 13.7557 16.9609 11.6548L14.874 11.6162C14.8128 14.859 12.1595 17.4976 8.96094 17.4976C5.76233 17.4976 3.10911 14.859 3.04789 11.6162L0.960938 11.6548C0.993332 13.7557 1.84908 15.7616 3.34702 17.2479C4.5944 18.4958 6.22849 19.2919 7.98702 19.5086V21.9114C7.98702 22.1675 8.08963 22.4131 8.27228 22.5942C8.45492 22.7752 8.70264 22.8769 8.96094 22.8769H9.10007C9.35837 22.8769 9.60608 22.7752 9.78873 22.5942C9.97137 22.4131 10.074 22.1675 10.074 21.9114V19.4893C11.7807 19.2489 13.3613 18.4618 14.5749 17.2479Z" fill="black"/>
</svg>
